<svg width="24" height="24" viewBox="0 0 45 45" fill="none" xmlns="http://www.w3.org/2000/svg"><path d="M0 22.5C0 34.928 10.073 45 22.5 45S45 34.928 45 22.5C45 10.073 34.927 0 22.5 0S0 10.073 0 22.5z" fill="#FA6E51"/><path d="M44.947 23.976L34.45 13.479l-5.425-5.425a.609.609 0 00-.431-.179H17.625a.61.61 0 00-.61.61v3.046h-6.703a.61.61 0 00-.609.61v24.375a.6.6 0 00.266.49c.04.057 7.274 7.29 7.331 7.33.02.028.046.046.07.07 1.648.384 3.364.594 5.13.594 11.931 0 21.686-9.286 22.447-21.024z" fill="#E8573F"/><path d="M35.25 14.344a.61.61 0 00-.132-.197l-6.093-6.093a.61.61 0 00-.431-.179H17.625a.61.61 0 00-.61.61v3.046h-6.703a.61.61 0 00-.609.61v24.375a.61.61 0 00.61.609h17.062a.61.61 0 00.61-.61V33.47h6.702a.61.61 0 00.61-.61V14.58a.606.606 0 00-.047-.236zm-6.047-4.389l4.014 4.014h-4.014V9.955zm-2.437 25.951H10.922V12.75h9.75v5.484c0 .337.273.61.61.61h5.484v17.062zm-.862-18.281h-4.013v-4.013l4.013 4.013zm2.08 14.625V18.234a.609.609 0 00-.178-.43l-6.094-6.094a.611.611 0 00-.43-.179h-3.048V9.094h9.75v5.484c0 .337.273.61.61.61h5.484V32.25h-6.094z" fill="#F4F6F9"/></svg>