<svg width="25" height="25" fill="none" xmlns="http://www.w3.org/2000/svg"><g clip-path="url(#clip0)"><path d="M1.563 1.701C-.403 3.741 0 5.909 0 12.495c0 5.469-.954 10.95 4.04 12.242 1.559.4 15.376.4 16.933-.003 2.08-.536 3.77-2.223 4.002-5.163.032-.41.032-13.735-.001-14.153C24.728 2.285 22.8.48 20.259.115 19.677.03 19.56.005 16.573 0 5.976.005 3.653-.467 1.563 1.701z" fill="url(#paint0_linear)"/><path d="M12.498 3.27c-3.782 0-7.374-.337-8.746 3.184-.567 1.454-.484 3.343-.484 6.047 0 2.373-.076 4.603.484 6.046 1.369 3.523 4.99 3.185 8.744 3.185 3.622 0 7.356.377 8.745-3.185.567-1.469.484-3.33.484-6.046 0-3.606.199-5.934-1.55-7.682-1.77-1.771-4.166-1.55-7.681-1.55h.004zm-.827 1.663c7.89-.012 8.894-.89 8.34 11.295-.197 4.31-3.479 3.837-7.512 3.837-7.354 0-7.566-.21-7.566-7.568 0-7.443.584-7.56 6.738-7.566v.002zm5.754 1.533a1.107 1.107 0 100 2.214 1.107 1.107 0 000-2.214zM12.498 7.76a4.74 4.74 0 10.001 9.481 4.74 4.74 0 00-.001-9.48zm0 1.664c4.068 0 4.073 6.154 0 6.154-4.067 0-4.073-6.154 0-6.154z" fill="#fff"/></g><defs><linearGradient id="paint0_linear" x1="1.61" y1="23.403" x2="24.845" y2="3.294" gradientUnits="userSpaceOnUse"><stop stop-color="#8E7F42"/><stop offset=".5" stop-color="#FF543E"/><stop offset="1" stop-color="#C837AB"/></linearGradient><clipPath id="clip0"><path fill="#fff" d="M0 0h25v25H0z"/></clipPath></defs></svg>