<svg width="20" height="20" fill="none" xmlns="http://www.w3.org/2000/svg"><path d="M15.86 12.969a3.513 3.513 0 00-2.828 1.428l-5.518-2.82a3.506 3.506 0 00-.115-2.31l5.784-3.474a3.51 3.51 0 002.676 1.238 3.52 3.52 0 003.516-3.515A3.52 3.52 0 0015.859 0a3.52 3.52 0 00-3.277 4.787L6.784 8.27a3.508 3.508 0 00-2.643-1.2 3.52 3.52 0 00-3.516 3.516 3.513 3.513 0 006.374 2.044l5.502 2.812A3.52 3.52 0 0015.86 20a3.52 3.52 0 003.516-3.516 3.52 3.52 0 00-3.516-3.515zm0-11.797a2.346 2.346 0 012.343 2.344 2.346 2.346 0 01-2.344 2.343 2.346 2.346 0 01-2.343-2.343 2.346 2.346 0 012.343-2.344zM4.14 12.93a2.346 2.346 0 01-2.343-2.344A2.346 2.346 0 014.14 8.242a2.346 2.346 0 012.343 2.344A2.346 2.346 0 014.14 12.93zm11.72 5.898a2.346 2.346 0 01-2.344-2.344 2.346 2.346 0 012.343-2.343 2.346 2.346 0 012.344 2.343 2.346 2.346 0 01-2.344 2.344z" fill="#fff"/></svg>